<svg preserveAspectRatio="none" width="100%" height="100%" overflow="visible" style="display: block;" viewBox="0 0 54.8513 41.9447" fill="none" xmlns="http://www.w3.org/2000/svg">
<path id="Vector" d="M54.8128 35.5226L54.6521 8.3915L54.6393 6.19099L54.6136 1.88619C54.6071 0.840465 53.7525 -0.00637928 52.6987 3.62125e-05L48.4447 0.0256976L21.0705 0.186085H20.852C20.6721 0.186085 20.4922 0.192501 20.3122 0.192501C14.741 0.352888 9.72241 2.68171 6.05966 6.36421V6.47969H5.94399C2.24911 10.2648 -0.0127973 15.4293 5.44756e-05 21.1263C0.0193321 26.8617 2.35192 32.0583 6.11749 35.8177H6.23958V35.9396C10.0244 39.667 15.2358 41.9638 20.9741 41.9445C22.2336 41.9445 23.4674 41.8291 24.669 41.6109C29.0322 40.8218 32.9262 38.6791 35.8886 35.6381C36.6532 34.8618 37.3472 34.0278 37.977 33.1425C38.1762 32.8666 38.3625 32.5843 38.5425 32.3021L48.5475 17.4502L48.6568 35.5611L48.6953 41.874L54.8513 41.8355L54.8128 35.5226ZM41.3891 16.7894L33.5945 28.3629C32.727 29.7038 33.0869 29.1585 32.4379 30.0823C29.9446 33.6493 25.5879 35.7151 20.897 35.7279H20.8584C12.7618 35.7279 6.18175 29.1905 6.15604 21.0942C6.13034 13.2545 12.2735 6.83254 20.0231 6.39628H20.0552C20.2994 6.38345 20.5564 6.37704 20.807 6.37704C20.9998 6.37704 21.1926 6.37704 21.3854 6.38987L35.7086 6.30647L48.4833 6.22948H48.5026L48.4833 6.26156L41.3891 16.7894Z" fill="var(--fill-0, white)"/>
</svg>
