<svg width="68" height="42" viewBox="0 0 68 42" fill="none" xmlns="http://www.w3.org/2000/svg">
<path d="M58.2003 1.71214L68.0002 1.71213V5.73007C68.0002 7.03672 67.6922 8.0587 67.0762 8.79603C66.4602 9.54269 65.6062 9.91601 64.5142 9.91602C63.7956 9.91602 63.1749 9.74802 62.6523 9.41203C62.1389 9.07603 61.7423 8.59537 61.4623 7.97005C61.1916 7.35406 61.0563 6.61207 61.0563 5.74408V2.72012L61.8823 3.53211L58.2003 3.53212V1.71214ZM58.2003 8.12405L61.7563 5.64608V7.59205L58.2003 10.084V8.12405ZM61.6863 3.53211L62.5543 2.72012V5.66008C62.5543 6.46274 62.7269 7.06473 63.0723 7.46605C63.4176 7.87671 63.8983 8.08204 64.5142 8.08204C65.1396 8.08204 65.6202 7.87671 65.9562 7.46605C66.2922 7.06472 66.4602 6.46273 66.4602 5.66007V2.72012L67.3562 3.5321L61.6863 3.53211ZM60.5103 13.5762L62.6663 13.4782L68.0002 18.6161V20.6601L63.4643 16.3902L62.3583 15.3822L60.5103 13.5762ZM58.2003 11.9522L68.0002 11.9522V13.7722L58.2003 13.7722V11.9522ZM58.2003 18.7841L62.6663 15.0322L63.9963 16.2362L58.2003 20.9121V18.7841ZM58.2003 29.0392L68.0002 29.0392V30.8592L58.2003 30.8592V29.0392ZM58.2003 22.1513L68.0002 22.1513V23.9713L58.2003 23.9713V22.1513ZM62.4003 23.8173L63.9543 23.8173V29.1792L62.4003 29.1792V23.8173ZM58.2003 33.4851L68.0002 33.4851V40.639L66.4742 40.639V35.3051L59.7263 35.3051L59.7263 40.835L58.2003 40.835L58.2003 33.4851ZM62.4283 35.1651L63.9263 35.1651V40.037L62.4283 40.037L62.4283 35.1651Z" fill="white"/>
<path d="M54.812 35.5221L54.6513 8.39138L54.6385 6.1909L54.6128 1.88616C54.6064 0.840453 53.7517 -0.00637919 52.6979 3.6212e-05L48.444 0.0256972L21.0702 0.186082H20.8517C20.6718 0.186082 20.4919 0.192498 20.312 0.192498C14.7408 0.352883 9.72227 2.68167 6.05957 6.36412V6.47959H5.9439C2.24908 10.2647 -0.0127971 15.4291 5.44748e-05 21.126C0.0193318 26.8613 2.35189 32.0578 6.1174 35.8172H6.23949V35.9391C10.0243 39.6665 15.2356 41.9632 20.9738 41.9439C22.2333 41.9439 23.467 41.8285 24.6686 41.6103C29.0317 40.8212 32.9258 38.6785 35.8881 35.6376C36.6527 34.8613 37.3467 34.0273 37.9764 33.142C38.1756 32.8661 38.362 32.5839 38.5419 32.3016L48.5469 17.4499L48.6561 35.5606L48.6946 41.8734L54.8505 41.8349L54.812 35.5221ZM41.3885 16.7891L33.594 28.3625C32.7266 29.7034 33.0864 29.158 32.4374 30.0819C29.9442 33.6488 25.5875 35.7146 20.8967 35.7274H20.8581C12.7617 35.7274 6.18166 29.1901 6.15596 21.0939C6.13025 13.2543 12.2733 6.83244 20.0228 6.39619H20.0549C20.2991 6.38336 20.5561 6.37695 20.8067 6.37695C20.9995 6.37695 21.1923 6.37695 21.3851 6.38978L35.7081 6.30638L48.4826 6.22939H48.5019L48.4826 6.26147L41.3885 16.7891Z" fill="white"/>
</svg>
